<svg width="108" height="108" viewBox="0 0 108 108" fill="none" xmlns="http://www.w3.org/2000/svg">
<path d="M87.7501 42.1875H91.1251V33.75C91.1251 32.8185 90.3691 32.0625 89.4376 32.0625H18.7854C17.8539 32.0625 17.0979 32.8185 17.0979 33.75V42.1875H20.4729C22.3376 42.1875 23.8479 43.6978 23.8479 45.5625V48.9375C23.8479 50.8022 22.3376 52.3125 20.4729 52.3125H17.0979V60.75C17.0979 61.6815 17.8539 62.4375 18.7854 62.4375H89.4376C90.3691 62.4375 91.1251 61.6815 91.1251 60.75V52.3125H87.7501C85.8855 52.3125 84.3751 50.8022 84.3751 48.9375V45.5625C84.3751 43.6978 85.8855 42.1875 87.7501 42.1875Z" fill="#F0BC5E"/>
<path d="M65.8125 16.875H42.1875C39.3964 16.875 37.125 19.1464 37.125 21.9375V25.3125H70.875V21.9375C70.875 19.1464 68.6036 16.875 65.8125 16.875Z" fill="#F0BC5E"/>
<path d="M92.7181 23.7853C92.0094 16.9999 86.9891 11.5087 80.2138 10.2499C75.6086 4.79925 68.9193 1.6875 61.7576 1.6875H47.4729C33.7181 1.6875 21.4246 10.6532 17.0979 23.625C12.4455 23.625 8.6604 27.4101 8.6604 32.0625V62.4375C8.6604 66.5111 11.5646 69.9199 15.4104 70.7046V74.6567C15.4104 83.4418 19.8586 91.4642 27.3073 96.1217L39.0995 103.493C42.0526 105.337 45.4563 106.312 48.9376 106.312H59.2854C62.7667 106.312 66.1704 105.337 69.1235 103.491L80.9158 96.12C88.3644 91.4642 92.8126 83.4401 92.8126 74.655V70.7029C96.6585 69.9182 99.5626 66.5111 99.5626 62.4358V32.0625C99.5626 27.9551 96.6095 24.5346 92.7181 23.7853ZM96.1876 32.0625V40.5H92.8126V33.75C92.8126 31.8887 91.299 30.375 89.4376 30.375H86.0626V27H91.1251C93.9163 27 96.1876 29.2714 96.1876 32.0625ZM62.0158 67.5L60.6168 64.7021C60.5156 64.4996 60.3941 64.314 60.276 64.125H82.6876V67.5H62.0158ZM18.7854 60.75V54H20.4729C23.264 54 25.5354 51.7286 25.5354 48.9375V45.5625C25.5354 42.7714 23.264 40.5 20.4729 40.5H18.7854V33.75H89.4376V40.5H87.7501C84.959 40.5 82.6876 42.7714 82.6876 45.5625V48.9375C82.6876 51.7286 84.959 54 87.7501 54H89.4376V60.75H18.7854ZM48.1681 64.125C48.05 64.314 47.9285 64.4996 47.8273 64.7021L46.43 67.5H25.3683L25.4797 64.125H48.1681ZM20.4729 43.875C21.4044 43.875 22.1604 44.6327 22.1604 45.5625V48.9375C22.1604 49.8673 21.4044 50.625 20.4729 50.625H12.0354V43.875H20.4729ZM82.6876 27V30.375H25.3126V27H82.6876ZM87.7501 50.625C86.8186 50.625 86.0626 49.8673 86.0626 48.9375V45.5625C86.0626 44.6327 86.8186 43.875 87.7501 43.875H96.1876V50.625H87.7501ZM47.4729 5.0625H61.7576C68.1093 5.0625 74.0274 7.90763 77.9947 12.8672L78.4132 13.3903L79.0747 13.4848C84.4528 14.2526 88.5146 18.3988 89.2891 23.6267H20.6535C24.8267 12.5904 35.544 5.0625 47.4729 5.0625ZM17.0979 27H21.9376V30.375H18.7854C16.9241 30.375 15.4104 31.8887 15.4104 33.75V40.5H12.0354V32.0625C12.0354 29.2714 14.3068 27 17.0979 27ZM12.0354 62.4375V54H15.4104V60.75C15.4104 62.6113 16.9241 64.125 18.7854 64.125H22.1047L21.9933 67.5H17.0979C14.3068 67.5 12.0354 65.2286 12.0354 62.4375ZM79.127 93.258L67.3348 100.629C64.9183 102.139 62.1339 102.938 59.2854 102.938H48.9376C46.0891 102.938 43.3048 102.139 40.8883 100.629L29.096 93.258C22.6397 89.2232 18.7854 82.269 18.7854 74.6567V70.875H48.5158L50.8479 66.2124C51.4925 64.9249 52.7835 64.125 54.2229 64.125C55.6623 64.125 56.955 64.9249 57.5979 66.2107L59.93 70.875H89.4376V74.6567C89.4376 82.269 85.5834 89.2249 79.127 93.258ZM91.1251 67.5H86.0626V64.125H89.4376C91.299 64.125 92.8126 62.6113 92.8126 60.75V54H96.1876V62.4375C96.1876 65.2286 93.9163 67.5 91.1251 67.5Z" fill="black"/>
<path d="M75.9375 37.125H79.3125V40.5H75.9375V37.125Z" fill="black"/>
<path d="M69.1875 37.125H72.5625V40.5H69.1875V37.125Z" fill="black"/>
<path d="M62.4375 37.125H65.8125V40.5H62.4375V37.125Z" fill="black"/>
<path d="M42.4104 54H45.7854V57.375H42.4104V54Z" fill="black"/>
<path d="M35.6604 54H39.0354V57.375H35.6604V54Z" fill="black"/>
<path d="M28.9104 54H32.2854V57.375H28.9104V54Z" fill="black"/>
<path d="M54.2229 87.75C47.7108 87.75 42.4104 83.9649 42.4104 79.3125H39.0354C39.0354 85.8262 45.8478 91.125 54.2229 91.125C62.598 91.125 69.4104 85.8262 69.4104 79.3125H66.0354C66.0354 83.9649 60.735 87.75 54.2229 87.75Z" fill="black"/>
</svg>
