<?xml version="1.0" encoding="utf-8"?>
<!-- Generator: Adobe Illustrator 23.0.2, SVG Export Plug-In . SVG Version: 6.00 Build 0)  -->
<svg version="1.1"
	 id="Map" inkscape:version="0.48.4 r9939" sodipodi:docname="Capital (Córdoba) (Provincia de Córdoba - Argentina).svg" xmlns:cc="http://creativecommons.org/ns#" xmlns:dc="http://purl.org/dc/elements/1.1/" xmlns:inkscape="http://www.inkscape.org/namespaces/inkscape" xmlns:rdf="http://www.w3.org/1999/02/22-rdf-syntax-ns#" xmlns:sodipodi="http://sodipodi.sourceforge.net/DTD/sodipodi-0.dtd" xmlns:svg="http://www.w3.org/2000/svg"
	 xmlns="http://www.w3.org/2000/svg" xmlns:xlink="http://www.w3.org/1999/xlink" x="0px" y="0px" viewBox="0 0 875.8 1047"
	 style="enable-background:new 0 0 875.8 1047;" xml:space="preserve">
<sodipodi:namedview  bordercolor="#666666" borderopacity="1" fit-margin-bottom="0" fit-margin-left="0" fit-margin-right="0" fit-margin-top="0" gridtolerance="10" guidetolerance="10" id="namedview4408" inkscape:current-layer="g3388" inkscape:cx="538.55283" inkscape:cy="512.21793" inkscape:pageopacity="0" inkscape:pageshadow="2" inkscape:window-height="1030" inkscape:window-maximized="1" inkscape:window-width="1920" inkscape:window-x="-8" inkscape:window-y="-8" inkscape:zoom="0.57762115" objecttolerance="10" pagecolor="#ffffff" showgrid="false">
	</sodipodi:namedview>
<path d="M116.6,231.6c-0.3,0.6-0.5,1.2-0.6,1.7l1.5-3.5C117.2,230.4,116.9,231,116.6,231.6z"/>
<path d="M798.8,635.7c-0.4-19-9.5-32.8-28.8-35.8c11.8-6.3,12-6.9,8-19.6c-0.9-2.8-1.4-5.6-2.3-8.4c-1.6-5.4-2.5-11.3-6.6-15.3
	c-7.4-7.4-11.5-16.4-14.4-26.1c-1.4-4.7-4-7.8-8.3-9.9c-6.3-3.1-12.3-6.6-16.9-12.1c-2.4-2.8-4.6-5.8-3.1-9.7
	c2.4-6.3,1.6-12.8,2.1-19.3c0.5-6.5-1.8-12.2-6.3-16.5c-4.3-4-4.3-8.1-2.2-12.8c2.5-5.6,2.3-11.3-0.3-16.3c-2.5-4.8-1.2-7.4,2.8-9.7
	c10.9-6.2,16.1-16.1,19.5-27.7c5.6-18.9,12.4-37.5,18.3-56.4c9.7-30.8,21.5-61,29-92.5c1.5-6.5-0.4-9.4-6.4-10.5
	c-5.1-0.9-10.1-1.9-15.2-2.8c-1.6-0.3-4.2,0.2-3.9-2.5c0.8-6-2.9-7.4-7.6-7.8c-2.4-0.2-4-1.7-5.8-3c-12.6-8.8-17-22.2-20.7-36
	c-1.8-6.8-5.4-9.5-12.4-9.4c-16.2,0.4-32.4,0.2-48.5,0.1c-5.7,0-13.8-5.7-13-10.3c1.2-7.1-1.3-14.5,3-21.3
	c3.4-5.5-0.3-15.4-6.1-15.9c-9.7-0.7-15.6-5.5-20-13.6c-1-1.9-3-3.6-4.9-4.5c-5.9-2.6-6.5-9.4-10.9-13.2c-0.8-0.7-0.8-2-0.4-3.2
	c3.2-9.3,3.1-10-6.6-10.5c-34.6-1.9-69-5.7-103.7-6.2c-3.7,0-6.2-0.2-7.1-4.9c-0.7-3.9-3.7-7.2-3.3-11.8c0.3-3-2.8-3.6-5.4-3.6
	c-14.2-0.1-28.3-5-42.7-1.1c-2.5,0.7-7.6,0.3-7.1-4.8c0.6-6.6-2.9-10-8.5-10.8c-6-0.9-12.7-3.2-17.1,3.8c-1.2,1.9-1.9,4.3-4.8,3.9
	c-3-0.4-2.7-3.3-3.4-5.2c-1.8-4.6-4.2-7.3-9.7-7.6c-8.5-0.5-16.9-2.2-25.4-3c-15.4-1.3-30.6-5.6-46.2-3.2c-9.3,1.4-18.7,2.7-28,4
	c-24.2,3.4-48.8,4.8-72.9,9.2c-6.2,1.1-7.9,4.2-6.7,9.9c2,9.9,3.7,19.9,5.8,29.8c4.5,21.6,4.7,21.8-13.1,34.7
	c-7,5.1-13.6,11.4-22.4,13.4c-13.8,3.2-27.7,6-41.7,8.1c-6.1,1-8.7,3.8-10.5,9.4c-5.6,18-11.2,36.1-17.9,53.7
	c-12.6,33.4-27.9,65.7-41.8,98.6c-1.5,3.5-3,7-3,11c-0.4,48.4-0.9,96.7-1.3,145.1c-0.1,8.3,1.4,9.4,10,9.7c5.8,0.2,11.8-1,17.3,1.5
	c19.1,8.5,37.7,18,57.3,25.5c5.2,2,7.9,6.3,10.3,11.5c2.6,5.6-0.3,11.8,2.5,16.3c3.3,5.2,3.6,10.4,3.9,16c0.2,4,1.6,7.4,6.1,7.5
	c13.6,0.2,27.3,0.9,40.8-0.3c7.2-0.7,6.3,2.2,4.7,5.9c-2.7,6.3-1.9,12.2,0.1,18.3c1.7,5,3.3,10.1,5.3,15c0.9,2.3,1.1,3.8-1.3,4.9
	c-4.1,1.8-5.9,6.4-5.6,9.3c0.8,7.4-2.5,13.8-3.9,20.5c-1.8,8.5-1.7,17.6-6.6,25.5c-2.3,3.7-6.1,9.3-5.4,11.6
	c2.6,7.9-3.4,12.3-5.2,18.3c-0.5,1.5-1.8,3.1-1.5,4.4c1,3.7-1.7,4.2-3.8,5.7c-7.6,5.3-12.8,11.1-11.7,22.1
	c3.4,36,5.9,72.2,6.4,108.4c0.8,65.9,0.8,131.9,1.2,197.8c0.1,13.5,0,13.5,13.9,13.5c40,0,80.1,0,120.1,0c57.2,0,114.4,0,171.5,0
	c1.8,0,3.6,0,5.4,0c4-0.1,6.2-1.9,6.2-6.2c0.2-32.2,1.6-64.3,0-96.5c-0.3-5.5,0.5-8,7-7.9c24.3,0.4,48.6-0.1,72.9,0.3
	c7.5,0.1,12.4-2.8,16.5-8.3c25.4-34.9,53.3-68,79.3-102.5c22.8-30.4,46.6-60.1,68.6-91.2c11.1-15.7,23-30.1,38.2-41.8
	c3.7-2.9,5.3-6.6,5-11.2C797.1,651.3,799,643.7,798.8,635.7z"/>
<path d="M665.1,814.2L665.1,814.2c-0.7,0.8-1.4,1.7-2,2.6L665.1,814.2z"/>
<path d="M118.5,227.2l-1.1,2.6C117.8,228.9,118.2,228.1,118.5,227.2L118.5,227.2z"/>
</svg>
