<svg width="66" height="63" viewBox="0 0 66 63" fill="none" xmlns="http://www.w3.org/2000/svg">
<rect width="66" height="31" transform="matrix(-1 0 0 1 66 31.3408)" fill="#F1F378"/>
<path d="M38 6.5625C31.6675 6.5625 26.5156 11.7144 26.5156 18.0469C26.5156 21.9781 28.4982 25.5954 31.8189 27.723C35.2098 29.8955 39.3723 30.1264 43.2405 28.3467C44.0635 27.9681 44.4239 26.9938 44.0452 26.1706C43.6665 25.3475 42.6923 24.9872 41.869 25.3658C39.0406 26.6672 36.0225 26.5192 33.589 24.9601C31.2145 23.4388 29.7969 20.8544 29.7969 18.0469C29.7969 13.5237 33.4768 9.84375 38 9.84375C42.5232 9.84375 46.2031 13.5237 46.2031 18.0469C46.2031 18.9515 45.4671 19.6875 44.5625 19.6875C43.7358 19.6875 42.9637 19.0606 42.9221 18.0718C42.922 18.0635 42.9219 18.0552 42.9219 18.0469C42.9219 15.333 40.7139 13.125 38 13.125C35.2861 13.125 33.0781 15.333 33.0781 18.0469C33.0781 20.7608 35.2861 22.9688 38 22.9688C39.2596 22.9688 40.4096 22.4926 41.2811 21.7116C42.1525 22.4927 43.3028 22.9688 44.5625 22.9688C47.2764 22.9688 49.4844 20.7608 49.4844 18.0469C49.4844 11.7144 44.3325 6.5625 38 6.5625ZM39.6175 18.31C39.4909 19.0898 38.8148 19.6875 38 19.6875C37.0954 19.6875 36.3594 18.9515 36.3594 18.0469C36.3594 17.1422 37.0954 16.4062 38 16.4062C38.8412 16.4062 39.5356 17.0428 39.6291 17.8593C39.6046 18.0084 39.6006 18.1601 39.6175 18.31Z" fill="black"/>
<path d="M62.6093 21.5442C62.6088 21.12 62.438 20.6959 62.1288 20.3867L56.0469 14.3048V1.64062C56.0469 0.734562 55.3123 0 54.4062 0H21.5938C20.6877 0 19.9531 0.734562 19.9531 1.64062V14.3048L13.8712 20.3867C13.8655 20.3924 13.8607 20.3988 13.8551 20.4046C13.5477 20.7213 13.3914 21.1384 13.3907 21.5442C13.3907 21.5453 13.3906 21.5463 13.3906 21.5474V51.0781C13.3906 53.7955 15.6017 56 18.3125 56H57.6875C60.4043 56 62.6094 53.7899 62.6094 51.0781V21.5474C62.6094 21.5463 62.6093 21.5453 62.6093 21.5442ZM56.0469 18.9452L58.6486 21.5469L56.0469 24.1486V18.9452ZM23.2344 14.9849C23.2344 14.9846 23.2344 14.9842 23.2344 14.9838V3.28125H52.7656V14.9838C52.7656 14.9842 52.7656 14.9846 52.7656 14.9849V27.4298L43.883 36.3125H32.117L23.2344 27.4298V14.9849ZM19.9531 18.9452V24.1486L17.3514 21.5469L19.9531 18.9452ZM16.6719 50.3986V25.5077L29.1173 37.9531L16.6719 50.3986ZM18.9922 52.7188L32.117 39.5938H43.883L57.0078 52.7188H18.9922ZM59.3281 50.3986L46.8827 37.9531L59.3281 25.5077V50.3986Z" fill="black"/>
</svg>
