<svg width="105" height="80" viewBox="0 0 105 80" fill="none" xmlns="http://www.w3.org/2000/svg">
<rect width="67" height="31" transform="matrix(-1 0 0 1 67 49)" fill="#F1F378"/>
<g clip-path="url(#clip0)">
<path d="M40.7663 23.2428H72.0752C73.3147 23.2428 74.3195 22.238 74.3195 20.9985C74.3195 19.759 73.3147 18.7542 72.0752 18.7542H40.7663C39.5268 18.7542 38.522 19.759 38.522 20.9985C38.522 22.238 39.5268 23.2428 40.7663 23.2428Z" fill="#3C3C3C"/>
<path d="M40.7663 30.9534H72.0752C73.3147 30.9534 74.3195 29.9485 74.3195 28.709C74.3195 27.4695 73.3147 26.4647 72.0752 26.4647H40.7663C39.5268 26.4647 38.522 27.4695 38.522 28.709C38.522 29.9485 39.5268 30.9534 40.7663 30.9534Z" fill="#3C3C3C"/>
<path d="M57.329 57.3064H40.7663C39.5268 57.3064 38.522 58.3112 38.522 59.5507C38.522 60.7902 39.5268 61.795 40.7663 61.795H57.3287C58.5682 61.795 59.573 60.7902 59.573 59.5507C59.573 58.3112 58.5685 57.3064 57.329 57.3064Z" fill="#3C3C3C"/>
<path d="M103.91 6.70443L97.3119 2.74546C96.8015 2.43927 96.1904 2.34789 95.613 2.49249C95.0355 2.63677 94.5389 3.00484 94.2327 3.51494L82.7453 22.6603V9.09175C82.7453 7.85224 81.7405 6.84743 80.501 6.84743H30.2443C29.0048 6.84743 28 7.85224 28 9.09175V72.3302C28 73.5697 29.0048 74.5745 30.2443 74.5745H80.501C81.7405 74.5745 82.7453 73.5697 82.7453 72.3302V46.3404L104.68 9.78364C105.318 8.72079 104.973 7.34246 103.91 6.70443ZM74.9258 50.6485L71.2012 53.7402L72.1765 48.9989L93.7066 13.1165L96.4559 14.766L74.9258 50.6485ZM98.7653 10.917L96.016 9.26745L96.9272 7.74901L99.6765 9.39858L98.7653 10.917ZM32.4886 70.0859V11.3361H78.2567V30.1412L74.2929 36.7472C74.3086 36.6398 74.3195 36.5311 74.3195 36.4195C74.3195 35.18 73.3147 34.1752 72.0752 34.1752H40.7663C39.5268 34.1752 38.522 35.18 38.522 36.4195C38.522 37.659 39.5268 38.6638 40.7663 38.6638H72.0752C72.575 38.6638 73.0348 38.4984 73.4077 38.2224L71.2095 41.8857H40.7663C39.5268 41.8857 38.522 42.8905 38.522 44.1301C38.522 45.3696 39.5268 46.3744 40.7663 46.3744H68.5164L68.1303 47.0175C68.0002 47.2346 67.9075 47.4722 67.8565 47.72L67.4708 49.5959H40.7663C39.5268 49.5959 38.522 50.6007 38.522 51.8402C38.522 53.0797 39.5268 54.0846 40.7663 54.0846H66.5474L65.516 59.0987C65.324 60.032 65.7424 60.9849 66.5596 61.4754C66.9168 61.6896 67.3163 61.7954 67.7142 61.7954C68.2262 61.7954 68.7353 61.6207 69.148 61.2779L78.0868 53.8582C78.148 53.8072 78.2012 53.7479 78.2567 53.6912V70.0859H32.4886Z" fill="#3C3C3C"/>
</g>
<defs>
<clipPath id="clip0">
<rect width="77" height="77" fill="white" transform="translate(28)"/>
</clipPath>
</defs>
</svg>
