<svg width="74" height="77" viewBox="0 0 74 77" fill="none" xmlns="http://www.w3.org/2000/svg">
<rect width="66" height="31" transform="matrix(-1 0 0 1 66 46)" fill="#F1F378"/>
<path d="M43.3219 0C26.4062 0 12.644 13.7622 12.644 30.6779C12.644 47.5936 26.4062 61.3558 43.3219 61.3558C60.2376 61.3558 73.9998 47.5936 73.9998 30.6779C73.9998 13.7622 60.2379 0 43.3219 0ZM43.3219 57.3186C28.6323 57.3186 16.6815 45.3675 16.6815 30.6779C16.6815 15.9882 28.6323 4.03744 43.3219 4.03744C58.0116 4.03744 69.9624 15.9882 69.9624 30.6779C69.9624 45.3675 58.0116 57.3186 43.3219 57.3186Z" fill="#3C3C3C"/>
<path d="M45.3406 28.8665V17.4048C46.4829 17.8291 47.4796 18.6074 48.1726 19.66C48.786 20.5912 50.0379 20.8491 50.9688 20.2359C51.9 19.6228 52.1578 18.3709 51.5444 17.4397C50.0941 15.2376 47.8594 13.7426 45.3406 13.2157V10.0088C45.3406 8.89392 44.4368 7.99011 43.3219 7.99011C42.207 7.99011 41.3032 8.89392 41.3032 10.0088V13.2097C36.8352 14.1411 33.4683 18.1091 33.4683 22.8493C33.4683 27.5896 36.8355 31.5581 41.3032 32.4896V43.9513C40.1609 43.5271 39.1642 42.7487 38.4712 41.6961C37.8578 40.7649 36.6059 40.5068 35.675 41.1202C34.7438 41.7333 34.486 42.9852 35.0994 43.9164C36.5497 46.1185 38.7844 47.6135 41.3032 48.1404V51.347C41.3032 52.4619 42.207 53.3657 43.3219 53.3657C44.4368 53.3657 45.3406 52.4619 45.3406 51.347V48.1465C49.8086 47.215 53.1756 43.247 53.1756 38.5068C53.1756 33.7665 49.8086 29.798 45.3406 28.8665ZM37.5057 22.8493C37.5057 20.3539 39.0901 18.2273 41.3032 17.4063V28.2924C39.0901 27.4713 37.5057 25.3447 37.5057 22.8493ZM45.3406 43.9495V33.0635C47.5537 33.8845 49.1381 36.0111 49.1381 38.5065C49.1381 41.0019 47.554 43.1285 45.3406 43.9495Z" fill="#3C3C3C"/>
</svg>
