<svg width="84" height="71" viewBox="0 0 84 71" fill="none" xmlns="http://www.w3.org/2000/svg">
<rect width="66" height="31" transform="matrix(-1 0 0 1 66 40)" fill="#F1F378"/>
<g clip-path="url(#clip0)">
<path d="M79.784 10.7457L54.7135 0.144942C54.2566 -0.0483142 53.7432 -0.0483142 53.2863 0.144942L28.2158 10.7457C27.5226 11.0388 27.071 11.7271 27.071 12.4902V59.1106C27.071 60.1541 27.9031 61 28.9295 61H79.0703C80.0967 61 80.9287 60.1541 80.9287 59.1106V12.4904C80.9287 11.7271 80.4771 11.0388 79.784 10.7457ZM77.2119 57.2212H30.7879V13.7509L53.9999 3.93585L77.2119 13.7509V57.2212Z" fill="#3C3C3C"/>
<path d="M44.4264 25.7843L36.5502 33.7918C35.8244 34.5298 35.8244 35.726 36.5502 36.4637C36.9132 36.8326 37.3886 37.017 37.8644 37.017C38.3402 37.017 38.8156 36.8324 39.1786 36.4637L47.0548 28.4562C48.3872 27.1015 50.4933 26.9927 51.9543 28.2036C54.8986 30.6441 59.1445 30.4249 61.8307 27.6942L68.2775 21.14V23.2742C68.2775 24.3176 69.1095 25.1635 70.1359 25.1635C71.1623 25.1635 71.9943 24.3176 71.9943 23.2742V16.6065C71.9943 15.5631 71.1623 14.7172 70.1359 14.7172H63.5776C62.5512 14.7172 61.7192 15.5631 61.7192 16.6065C61.7192 17.65 62.5512 18.4959 63.5776 18.4959H65.6218L59.2024 25.0224C57.8699 26.3771 55.7633 26.4858 54.3028 25.2753C51.3586 22.8342 47.1126 23.0531 44.4264 25.7843Z" fill="#3C3C3C"/>
<path d="M33.3599 40.6787C33.3599 41.7222 34.1919 42.5681 35.2183 42.5681H72.7812C73.8076 42.5681 74.6396 41.7222 74.6396 40.6787C74.6396 39.6352 73.8076 38.7893 72.7812 38.7893H35.2183C34.1919 38.7893 33.3599 39.6349 33.3599 40.6787Z" fill="#3C3C3C"/>
<path d="M72.7815 44.303H35.2183C34.1919 44.303 33.3599 45.1489 33.3599 46.1924C33.3599 47.2358 34.1919 48.0817 35.2183 48.0817H72.7812C73.8076 48.0817 74.6396 47.2358 74.6396 46.1924C74.6396 45.1489 73.8078 44.303 72.7815 44.303Z" fill="#3C3C3C"/>
<path d="M72.7815 49.8168H35.2183C34.1919 49.8168 33.3599 50.6627 33.3599 51.7062C33.3599 52.7496 34.1919 53.5955 35.2183 53.5955H72.7812C73.8076 53.5955 74.6396 52.7496 74.6396 51.7062C74.6396 50.6627 73.8078 49.8168 72.7815 49.8168Z" fill="#3C3C3C"/>
</g>
<defs>
<clipPath id="clip0">
<rect width="60" height="61" fill="white" transform="translate(24)"/>
</clipPath>
</defs>
</svg>
