<svg width="97" height="50" viewBox="0 0 97 50" fill="none" xmlns="http://www.w3.org/2000/svg">
<rect width="66" height="31" transform="matrix(-1 0 0 1 66 18.3408)" fill="#F1F378"/>
<path d="M93.0547 12.8071C93.0109 12.7846 92.9669 12.7636 92.9218 12.7445L83.6896 8.76404C83.1587 8.53483 82.5586 8.52576 82.0207 8.73746L76.4807 10.9199L70.9401 8.73746C70.4244 8.53451 69.8516 8.53451 69.3356 8.73746L63.795 10.9199L58.255 8.73746C57.7396 8.53451 57.1661 8.53451 56.6508 8.73746L52.6271 10.322C49.7405 4.06337 43.4991 0 36.4453 0C26.613 0 18.6135 7.99915 18.6135 17.8317C18.6135 27.6643 26.613 35.6635 36.4453 35.6635C43.7958 35.6635 50.2393 31.273 52.9555 24.5803H90.21C93.6454 24.5803 96.4404 21.7853 96.4404 18.3499C96.4404 16.003 95.143 13.8787 93.0547 12.8071ZM90.2103 20.2027H51.411C50.4475 20.2027 49.5973 20.8328 49.3168 21.7544C47.5818 27.4554 42.4093 31.2858 36.4453 31.2858C29.0268 31.2858 22.9915 25.2502 22.9915 17.8317C22.9915 10.4133 29.0268 4.37796 36.4453 4.37796C42.3661 4.37796 47.528 8.17145 49.2905 13.8178C49.4719 14.3982 49.8862 14.8772 50.4347 15.1399C50.9835 15.4029 51.6167 15.4254 52.1821 15.2025L57.4526 13.1267L62.9925 15.3091C63.5079 15.512 64.0814 15.512 64.5971 15.3091L70.1377 13.1267L75.6783 15.3091C76.194 15.512 76.7672 15.5117 77.2828 15.3091L82.7853 13.1417L91.1084 16.7304C91.6985 17.0571 92.0628 17.6726 92.0628 18.3505C92.0625 19.3718 91.2316 20.2027 90.2103 20.2027Z" fill="#3C3C3C"/>
<path d="M32.9314 12.1288C29.7868 12.1288 27.2285 14.6871 27.2285 17.8317C27.2285 20.9763 29.7868 23.5346 32.9314 23.5346C36.076 23.5346 38.6343 20.9763 38.6343 17.8317C38.6343 14.6871 36.0757 12.1288 32.9314 12.1288ZM32.9314 19.1566C32.2009 19.1566 31.6065 18.5622 31.6065 17.8317C31.6065 17.1012 32.2009 16.5067 32.9314 16.5067C33.6619 16.5067 34.2564 17.1012 34.2564 17.8317C34.2564 18.5622 33.6619 19.1566 32.9314 19.1566Z" fill="#3C3C3C"/>
</svg>
