<svg width="66" height="60" viewBox="0 0 66 60" fill="none" xmlns="http://www.w3.org/2000/svg">
<rect width="66" height="31" transform="matrix(-1 0 0 1 66 28.3408)" fill="#F1F378"/>
<g clip-path="url(#clip0)">
<path d="M64.5595 41.3037L57.5979 34.3421C55.6786 32.4228 52.5554 32.4228 50.6362 34.3421L47.4719 37.5064C46.0179 38.9604 43.6519 38.96 42.1984 37.5069L28.4827 23.7796C27.0253 22.3222 27.0251 19.9633 28.4827 18.5056C28.9924 17.9959 30.456 16.5324 31.6471 15.3413C33.558 13.4305 33.5846 10.3171 31.6452 8.37792L24.6854 1.44003C22.7661 -0.479172 19.6431 -0.479172 17.729 1.435C16.2966 2.85491 15.8346 3.31297 15.1923 3.94965C8.27107 10.8708 8.27107 22.1324 15.192 29.0533L36.924 50.7967C43.8614 57.7342 55.0899 57.7348 62.0279 50.7967L64.5595 48.2652C66.4788 46.3459 66.4788 43.223 64.5595 41.3037ZM20.0444 3.76054C20.6842 3.1208 21.725 3.12069 22.3668 3.76229L29.3266 10.7002C29.9678 11.3414 29.9678 12.3793 29.3266 13.0207L28.1662 14.1809L18.8901 4.90482L20.0444 3.76054ZM39.2449 48.4765L17.5128 26.7329C12.158 21.3781 11.8637 12.9699 16.6076 7.2635L25.8569 16.5127C23.4265 19.2677 23.5278 23.4659 26.1617 26.0998L39.8769 39.8265C39.877 39.8266 39.8772 39.8268 39.8773 39.8269C42.5084 42.458 46.7063 42.5659 49.4647 40.1323L58.7141 49.3817C53.0259 54.1174 44.6366 53.8681 39.2449 48.4765ZM62.2391 45.9447L61.0787 47.105L51.7966 37.8228L52.9567 36.6626C53.5966 36.0228 54.6375 36.0227 55.2774 36.6626L62.239 43.6242C62.8788 44.264 62.8788 45.3051 62.2391 45.9447Z" fill="black"/>
</g>
<defs>
<clipPath id="clip0">
<rect width="56" height="56" fill="white" transform="translate(10)"/>
</clipPath>
</defs>
</svg>
